<svg xmlns:xlink="http://www.w3.org/1999/xlink" xmlns="http://www.w3.org/2000/svg" enable-background="new 0 0 32 32" viewBox="0 0 32 32" x="0" y="0" class="shopee-svg-icon icon-order-received" width="32"  height="32" ><g stroke="#E0E0E0" fill="#E0E0E0"><polygon fill="none" points="2 28 2 19.2 10.6 19.2 11.7 21.5 19.8 21.5 20.9 19.2 30 19.1 30 28" stroke-linejoin="round" stroke-miterlimit="10" stroke-width="3px" stroke="#E0E0E0"></polygon><polyline fill="none" points="21 8 27 8 30 19.1" stroke-linecap="round" stroke-linejoin="round" stroke-miterlimit="10" stroke-width="3px" stroke="#E0E0E0"></polyline><polyline fill="none" points="2 19.2 5 8 11 8" stroke-linecap="round" stroke-linejoin="round" stroke-miterlimit="10" stroke-width="3px" stroke="#E0E0E0"></polyline><line fill="none" stroke-linecap="round" stroke-linejoin="round" stroke-miterlimit="10" stroke-width="3px" x1="16" x2="16" y1="4" y2="14" stroke="#E0E0E0"></line><path d="m20.1 13.4-3.6 3.6c-.3.3-.7.3-.9 0l-3.6-3.6c-.4-.4-.1-1.1.5-1.1h7.2c.5 0 .8.7.4 1.1z" stroke="none" fill="#E0E0E0"></path></g></svg>