<svg xmlns:xlink="http://www.w3.org/1999/xlink" xmlns="http://www.w3.org/2000/svg" enable-background="new 0 0 32 32" viewBox="0 0 32 32" x="0" y="0" class="shopee-svg-icon icon-order-order" width="32"  height="32" ><g stroke="#2DC258" fill="#2DC258"><path d="m5 3.4v23.7c0 .4.3.7.7.7.2 0 .3 0 .3-.2.5-.4 1-.5 1.7-.5.9 0 1.7.4 2.2 1.1.2.2.3.4.5.4s.3-.2.5-.4c.5-.7 1.4-1.1 2.2-1.1s1.7.4 2.2 1.1c.2.2.3.4.5.4s.3-.2.5-.4c.5-.7 1.4-1.1 2.2-1.1.9 0 1.7.4 2.2 1.1.2.2.3.4.5.4s.3-.2.5-.4c.5-.7 1.4-1.1 2.2-1.1.7 0 1.2.2 1.7.5.2.2.3.2.3.2.3 0 .7-.4.7-.7v-23.7z" fill="none" stroke-linecap="round" stroke-linejoin="round" stroke-miterlimit="10" stroke-width="3px" stroke="#2DC258"></path><g stroke="#2DC258" fill="#2DC258"><line fill="none" stroke-linecap="round" stroke-miterlimit="10" stroke-width="3px" x1="10" x2="22" y1="11.5" y2="11.5" stroke="#2DC258"></line><line fill="none" stroke-linecap="round" stroke-miterlimit="10" stroke-width="3px" x1="10" x2="22" y1="18.5" y2="18.5" stroke="#2DC258"></line></g></g></svg>