<svg xmlns:xlink="http://www.w3.org/1999/xlink" xmlns="http://www.w3.org/2000/svg" enable-background="new 0 0 32 32" viewBox="0 0 32 32" x="0" y="0" class="shopee-svg-icon icon-order-paid" width="32"  height="32" ><g stroke="#FFFFFF" fill="#FFFFFF"><path clip-rule="evenodd" d="m24 22h-21c-.5 0-1-.5-1-1v-15c0-.6.5-1 1-1h21c .5 0 1 .4 1 1v15c0 .5-.5 1-1 1z" fill="none" fill-rule="evenodd" stroke-miterlimit="10" stroke-width="3px" stroke="#FFFFFF"></path><path clip-rule="evenodd" d="m24.8 10h4.2c.5 0 1 .4 1 1v15c0 .5-.5 1-1 1h-21c-.6 0-1-.4-1-1v-4" fill="none" fill-rule="evenodd" stroke-miterlimit="10" stroke-width="3px" stroke="#FFFFFF"></path><path d="m12.9 17.2c-.7-.1-1.5-.4-2.1-.9l.8-1.2c.6.5 1.1.7 1.7.7.7 0 1-.3 1-.8 0-1.2-3.2-1.2-3.2-3.4 0-1.2.7-2 1.8-2.2v-1.3h1.2v1.2c.8.1 1.3.5 1.8 1l-.9 1c-.4-.4-.8-.6-1.3-.6-.6 0-.9.2-.9.8 0 1.1 3.2 1 3.2 3.3 0 1.2-.6 2-1.9 2.3v1.2h-1.2z" stroke="none" fill="#FFFFFF"></path></g></svg>